HIERARCHY
ROOT joint_Root
{
	OFFSET 0.0 0.0 0.0
	CHANNELS 6 Xposition Yposition Zposition Zrotation Xrotation Yrotation 
	JOINT Hips
	{
		OFFSET -17.1583 93.1646 452.98
		CHANNELS 6 Xposition Yposition Zposition Zrotation Xrotation Yrotation 
		JOINT Spine
		{
			OFFSET 15.7357 0.0 0.0
			CHANNELS 6 Xposition Yposition Zposition Zrotation Xrotation Yrotation 
			JOINT Chest
			{
				OFFSET 8.98455 -0.406207 0.0
				CHANNELS 6 Xposition Yposition Zposition Zrotation Xrotation Yrotation 
				JOINT Neck
				{
					OFFSET 16.3773 0.0 0.0
					CHANNELS 6 Xposition Yposition Zposition Zrotation Xrotation Yrotation 
					JOINT Head
					{
						OFFSET 6.45672 0.0 0.0
						CHANNELS 6 Xposition Yposition Zposition Zrotation Xrotation Yrotation 
						End Site
						{
							OFFSET 0.0 0.0 0.0
						}
					}
				}
				JOINT Shoulder_L
				{
					OFFSET 12.9942 -0.242716 4.98039
					CHANNELS 6 Xposition Yposition Zposition Zrotation Xrotation Yrotation 
					JOINT UpperArm_L
					{
						OFFSET 5.34809 0.0 0.0
						CHANNELS 6 Xposition Yposition Zposition Zrotation Xrotation Yrotation 
						JOINT LowerArm_L
						{
							OFFSET 24.3286 1.87007e-05 0.0
							CHANNELS 6 Xposition Yposition Zposition Zrotation Xrotation Yrotation 
							JOINT Hand_L
							{
								OFFSET 22.2916 0.0 0.0
								CHANNELS 6 Xposition Yposition Zposition Zrotation Xrotation Yrotation 
								End Site
								{
									OFFSET 0.0 0.0 0.0
								}
							}
						}
					}
				}
				JOINT Shoulder_R
				{
					OFFSET 12.9945 -0.242716 -4.98039
					CHANNELS 6 Xposition Yposition Zposition Zrotation Xrotation Yrotation 
					JOINT UpperArm_R
					{
						OFFSET -5.34813 0.0 0.0
						CHANNELS 6 Xposition Yposition Zposition Zrotation Xrotation Yrotation 
						JOINT LowerArm_R
						{
							OFFSET -24.3289 0.000322201 0.0
							CHANNELS 6 Xposition Yposition Zposition Zrotation Xrotation Yrotation 
							JOINT Hand_R
							{
								OFFSET -22.2915 -0.000108084 0.0
								CHANNELS 6 Xposition Yposition Zposition Zrotation Xrotation Yrotation 
								End Site
								{
									OFFSET 0.0 0.0 0.0
								}
							}
						}
					}
				}
			}
		}
		JOINT UpperLeg_L
		{
			OFFSET -2.19248 -6.46944 0.0
			CHANNELS 6 Xposition Yposition Zposition Zrotation Xrotation Yrotation 
			JOINT LowerLeg_L
			{
				OFFSET 39.0811 0.0 -1.23785e-05
				CHANNELS 6 Xposition Yposition Zposition Zrotation Xrotation Yrotation 
				JOINT Foot_L
				{
					OFFSET 40.9854 0.0 -1.26872e-05
					CHANNELS 6 Xposition Yposition Zposition Zrotation Xrotation Yrotation 
					JOINT Toes_L
					{
						OFFSET 11.7543 0.0 0.0
						CHANNELS 6 Xposition Yposition Zposition Zrotation Xrotation Yrotation 
						End Site
						{
							OFFSET 0.0 0.0 0.0
						}
					}
				}
			}
		}
		JOINT UpperLeg_R
		{
			OFFSET -2.19251 6.46944 0.0
			CHANNELS 6 Xposition Yposition Zposition Zrotation Xrotation Yrotation 
			JOINT LowerLeg_R
			{
				OFFSET -39.0811 -0.00228153 -0.0401928
				CHANNELS 6 Xposition Yposition Zposition Zrotation Xrotation Yrotation 
				JOINT Foot_R
				{
					OFFSET -40.9854 0.0 0.0
					CHANNELS 6 Xposition Yposition Zposition Zrotation Xrotation Yrotation 
					JOINT Toes_R
					{
						OFFSET -11.7543 0.0 0.0
						CHANNELS 6 Xposition Yposition Zposition Zrotation Xrotation Yrotation 
						End Site
						{
							OFFSET 0.0 0.0 0.0
						}
					}
				}
			}
		}
	}
}
MOTION
Frames:	5
Frame Time:	0.0333333
0.000000 0.000000 0.000000 0.000000 0.000000 -0.000000 147.894000 90.628200 224.917000 94.144600 -64.160400 -1.754360 15.735700 0.000005 -0.000001 34.463600 85.356300 -33.742500 8.984550 -0.406207 -0.000000 -2.470520 -7.719180 1.277190 16.377300 -0.000001 -0.000001 -0.328521 -1.856120 0.438889 6.456720 -0.000001 -0.000000 2.282280 0.148555 0.815208 12.994200 -0.242716 4.980390 -92.009900 6.879010 -73.669700 5.348090 -0.000007 -0.000001 -73.541900 -7.180460 -13.998400 24.328600 0.000019 0.000005 46.817500 12.963900 -78.110200 22.291600 -0.000001 0.000005 52.245300 4.234250 20.796400 12.994500 -0.242716 -4.980390 89.494600 1.469580 -71.019000 -5.348130 -0.000001 -0.000004 -63.752300 -12.635100 13.871100 -24.328900 0.000322 -0.000009 0.064194 1.534110 -2.435080 -22.291500 -0.000108 -0.000004 43.649400 5.208860 2.495760 -2.192480 -6.469440 -0.000000 -175.728000 -17.346600 6.179410 39.081100 -0.000007 -0.000012 -0.034177 0.099911 18.884400 40.985400 -0.000006 -0.000013 -12.230200 7.894980 -64.321800 11.754300 -0.000000 0.000003 -0.010948 -0.110597 -21.084100 -2.192510 6.469440 -0.000001 -169.569000 4.750980 151.928000 -39.081100 -0.002282 -0.040193 0.004337 -0.008292 6.828510 -40.985400 0.000008 0.000006 -0.896206 -8.096670 -64.976800 -11.754300 -0.000006 -0.000006 -0.004015 0.219263 -7.674750
0.000000 0.000000 0.000000 0.000000 0.000000 -0.000000 144.184000 90.020300 226.854000 93.153400 -64.246400 -3.301090 15.735700 0.000005 -0.000001 30.234200 85.323200 -29.232800 8.984550 -0.406207 -0.000000 -2.997620 -8.171820 1.791590 16.377300 -0.000001 -0.000001 -0.603906 -1.872130 0.472293 6.456720 -0.000001 -0.000000 2.002910 0.340385 0.485899 12.994200 -0.242716 4.980390 -91.978700 6.838500 -73.820300 5.348090 -0.000007 -0.000001 -75.129300 -6.421900 -12.529600 24.328600 0.000019 0.000005 47.586400 12.447600 -78.860100 22.291600 -0.000001 0.000005 52.714200 4.237980 20.740000 12.994500 -0.242716 -4.980390 89.464200 1.535810 -70.763600 -5.348130 -0.000001 -0.000004 -64.073900 -13.041100 13.321100 -24.328900 0.000322 -0.000009 0.066598 1.448370 -2.675110 -22.291500 -0.000108 -0.000004 44.624800 5.233570 1.865660 -2.192480 -6.469440 -0.000000 -174.907000 -16.551200 6.306370 39.081100 -0.000007 -0.000012 -0.029589 0.073722 21.868400 40.985400 -0.000006 -0.000013 -12.109000 7.328590 -62.839100 11.754300 -0.000000 0.000003 -0.035750 -0.242715 -26.535800 -2.192510 6.469440 -0.000001 -169.417000 3.876990 151.890000 -39.081100 -0.002282 -0.040193 0.002972 0.002872 7.363030 -40.985400 0.000008 0.000006 -0.453727 -8.234330 -64.579600 -11.754300 -0.000006 -0.000006 -0.003631 0.215211 -7.839760
0.000000 0.000000 0.000000 0.000000 0.000000 -0.000000 140.114000 89.531400 228.653000 90.339700 -64.793700 -7.502660 15.735700 0.000005 -0.000001 22.585500 85.755400 -20.998200 8.984550 -0.406207 -0.000000 -4.414900 -8.000390 2.871620 16.377300 -0.000001 -0.000001 -0.642562 -1.925340 0.355772 6.456720 -0.000001 -0.000000 1.804690 0.273430 0.058383 12.994200 -0.242716 4.980390 -92.112500 7.294680 -73.801400 5.348090 -0.000007 -0.000001 -76.226400 -5.293240 -10.339100 24.328600 0.000019 0.000005 47.623800 13.763900 -77.752600 22.291600 -0.000001 0.000005 53.712200 4.251200 20.540900 12.994500 -0.242716 -4.980390 89.337600 1.889430 -70.675600 -5.348130 -0.000001 -0.000004 -64.336500 -12.924900 12.835000 -24.328900 0.000322 -0.000009 0.042111 0.796300 -3.103890 -22.291500 -0.000108 -0.000004 45.284400 5.254290 1.319600 -2.192480 -6.469440 -0.000000 -173.425000 -16.669300 4.972940 39.081100 -0.000007 -0.000012 0.002092 -0.004390 25.480500 40.985400 -0.000006 -0.000013 -11.740000 6.693420 -59.573200 11.754300 -0.000000 0.000003 -0.091332 -0.422536 -34.171900 -2.192510 6.469440 -0.000001 -167.015000 2.997040 150.353000 -39.081100 -0.002282 -0.040193 -0.015666 0.108147 9.966930 -40.985400 0.000008 0.000006 8.471630 -10.399000 -57.900600 -11.754300 -0.000006 -0.000006 -0.002672 0.204504 -8.275540
0.000000 0.000000 0.000000 0.000000 0.000000 -0.000000 135.732000 89.203700 230.477000 86.518300 -65.734900 -12.123000 15.735700 0.000005 -0.000001 16.043400 86.328900 -13.772100 8.984550 -0.406207 -0.000000 -5.612600 -7.311720 4.193470 16.377300 -0.000001 -0.000001 -0.836994 -2.022120 0.368017 6.456720 -0.000001 -0.000000 1.909200 -0.044136 -0.674548 12.994200 -0.242716 4.980390 -92.380400 8.090380 -73.544500 5.348090 -0.000007 -0.000001 -76.775000 -3.671400 -7.982160 24.328600 0.000019 0.000005 46.245400 17.264400 -74.136600 22.291600 -0.000001 0.000005 55.352000 4.281430 20.078300 12.994500 -0.242716 -4.980390 89.126400 2.496300 -70.706000 -5.348130 -0.000001 -0.000004 -64.666200 -12.075400 11.777600 -24.328900 0.000322 -0.000009 0.006879 0.148045 -3.048990 -22.291500 -0.000108 -0.000004 45.712800 5.265810 1.011260 -2.192480 -6.469440 -0.000000 -171.700000 -16.417500 3.114050 39.081100 -0.000007 -0.000012 0.067555 -0.115292 30.367800 40.985400 -0.000006 -0.000013 -11.355000 5.245280 -53.736400 11.754300 -0.000000 0.000003 -0.165862 -0.585147 -41.429000 -2.192510 6.469440 -0.000001 -165.042000 1.786100 147.626000 -39.081100 -0.002282 -0.040193 0.011006 -0.023643 17.998900 -40.985400 0.000008 0.000006 11.853700 -10.088100 -57.987600 -11.754300 -0.000006 -0.000006 -0.003730 0.216274 -7.796490
0.000000 0.000000 0.000000 0.000000 0.000000 -0.000000 131.221000 88.935800 232.449000 83.820100 -67.672200 -13.535600 15.735700 0.000005 -0.000001 22.662700 86.776200 -20.072700 8.984550 -0.406207 -0.000000 -5.151620 -6.234850 4.907820 16.377300 -0.000001 -0.000001 -1.233880 -1.944770 0.709230 6.456720 -0.000001 -0.000000 2.092530 -0.099899 -1.455960 12.994200 -0.242716 4.980390 -92.340700 7.954990 -73.545300 5.348090 -0.000007 -0.000001 -77.776000 -2.393730 -5.676680 24.328600 0.000019 0.000005 42.314900 21.968300 -67.657900 22.291600 -0.000001 0.000005 55.766100 4.359620 18.861600 12.994500 -0.242716 -4.980390 89.082100 2.667300 -71.002200 -5.348130 -0.000001 -0.000004 -66.521900 -10.132000 9.106910 -24.328900 0.000322 -0.000009 -0.031447 -0.721938 -2.415670 -22.291500 -0.000108 -0.000004 46.257100 5.275010 0.762577 -2.192480 -6.469440 -0.000000 -170.568000 -15.461400 1.931340 39.081100 -0.000007 -0.000012 0.164862 -0.215135 37.463400 40.985400 -0.000006 -0.000013 -10.926600 3.434490 -45.890600 11.754300 -0.000000 0.000003 -0.141278 -0.537231 -39.245400 -2.192510 6.469440 -0.000001 -164.343000 0.994877 148.316000 -39.081100 -0.002282 -0.040193 0.060152 -0.121410 25.087600 -40.985400 0.000008 0.000006 11.545700 -9.842930 -60.343000 -11.754300 -0.000006 -0.000006 -0.006862 0.246144 -6.578910
